PathFileType	4	(X/Y/Z)	D:\walkingproject\041602jb\041602jb1.trc																																																																																		
DataRate	CameraRate	NumFrames	NumMarkers	Units	OrigDataRate	OrigDataStartFrame	OrigNumFrames																																																																														
120	120	11	28	mm	120	151	240																																																																														
Frame#	Time	head vertex			right ear			left ear			r scapula			right shoulder			left shoulder			sacrum			right elbow			right wrist			left elbow			left wrist			right g. trochanter			rigth mid-thigh			right knee			right tibia			right ankle			right heel			right mth			left g. trochanter			left mid-thigh			left knee			left tibia			left ankle			left heel			left mth			slider			fixed 1			fixed 2		
		X1	Y1	Z1	X2	Y2	Z2	X3	Y3	Z3	X4	Y4	Z4	X5	Y5	Z5	X6	Y6	Z6	X7	Y7	Z7	X8	Y8	Z8	X9	Y9	Z9	X10	Y10	Z10	X11	Y11	Z11	X12	Y12	Z12	X13	Y13	Z13	X14	Y14	Z14	X15	Y15	Z15	X16	Y16	Z16	X17	Y17	Z17	X18	Y18	Z18	X19	Y19	Z19	X20	Y20	Z20	X21	Y21	Z21	X22	Y22	Z22	X23	Y23	Z23	X24	Y24	Z24	X25	Y25	Z25	X26	Y26	Z26	X27	Y27	Z27	X28	Y28	Z28
																																																																																					
151	1.25	348.29102	249.44743	1727.32483	402.93054	151.64026	1622.82788	400.55707	364.63782	1634.15002	238.5529	179.47775	1331.05908	383.3808	18.33141	1344.99194	380.98087	499.47122	1365.76135	289.55768	257.52853	984.61194	386.36642	-27.26926	1110.17798	618.15204	24.6236	1156.36365	414.4259	544.89319	1101.95178	619.65216	458.49835	1158.58398	427.99606	57.73099	879.34601				359.11893	80.63588	479.28055	389.74646	134.73021	228.75128	343.81305	123.35787	95.28453	255.02554	165.02025	38.16899	452.17593	84.10741	13.37262	448.43469	456.8486	866.39996				380.27322	420.36758	481.89645	410.38239	390.2991	336.64688	336.18735	371.80756	92.32047	260.23984	324.35254	36.48975	447.66922	415.13538	2.67758	965.91101	-21.14479	9.93127	1955.65491	-11.8066	-14.00936	-4.60406	1.00681	9.24365
152	1.258	348.29102	249.44743	1727.32483	403.16827	151.67078	1622.87	400.55707	364.63782	1634.15002	238.5529	179.47775	1331.05908	383.78574	18.06447	1345.17603	380.98087	499.47122	1365.76135	289.55768	257.52853	984.61194	386.36642	-27.26926	1110.17798	617.86572	24.00637	1156.7937	414.54572	544.4632	1102.02759	619.65216	458.49835	1158.58398	428.78699	57.44772	879.75122				359.11893	80.63588	479.28055	389.80856	135.48361	228.73669	344.12784	123.70636	94.96516	255.02554	165.02025	38.16899	452.17593	84.10741	13.37262	448.29147	456.5726	865.7287				380.27322	420.36758	481.89645	410.38239	390.2991	336.64688	336.18735	371.80756	92.32047	260.23984	324.35254	36.48975	447.66922	415.13538	2.67758	965.91101	-21.14479	9.93127	1955.65491	-11.8066	-14.00936	-4.60406	1.00681	9.24365
153	1.267	348.31754	249.21347	1727.46973	402.99063	151.54893	1622.59448	400.55707	364.63782	1634.15002	238.5529	179.47775	1331.05908	383.78574	18.06447	1345.17603	380.98087	499.47122	1365.76135	289.55768	257.52853	984.61194	385.68481	-27.59672	1110.52795	618.15204	24.6236	1156.36365	414.4259	544.89319	1101.95178	619.65216	458.49835	1158.58398	428.78699	57.44772	879.75122				359.11893	80.63588	479.28055	389.74646	134.73021	228.75128	343.81305	123.35787	95.28453	255.02554	165.02025	38.16899	452.38889	83.77427	13.14709	448.59116	456.81122	866.09045				380.27322	420.36758	481.89645	410.38239	390.2991	336.64688	336.18735	371.80756	92.32047	260.23984	324.35254	36.48975	447.66922	415.13538	2.67758	965.91101	-21.14479	9.93127	1955.65491	-11.8066	-14.00936	-4.60406	1.00681	9.24365
154	1.275	348.17776	249.52206	1727.65857	402.99063	151.54893	1622.59448	400.55707	364.63782	1634.15002	238.37697	179.71846	1331.28564	383.78574	18.06447	1345.17603	380.98087	499.47122	1365.76135	289.55768	257.52853	984.61194	386.36642	-27.26926	1110.17798	617.86572	24.00637	1156.7937	414.4259	544.89319	1101.95178	619.65216	458.49835	1158.58398	427.99606	57.73099	879.34601				359.49329	80.6213	478.91141	389.74646	134.73021	228.75128	343.81305	123.35787	95.28453	255.02554	165.02025	38.16899	452.17593	84.10741	13.37262	448.59116	456.81122	866.09045				380.74149	420.38116	481.61533	410.38239	390.2991	336.64688	336.18735	371.80756	92.32047	260.23984	324.35254	36.48975	448.23346	415.12891	2.60063	965.91101	-21.14479	9.93127	1955.65491	-11.8066	-14.00936	-4.60406	1.00681	9.24365
155	1.283	348.32529	249.33574	1727.64795	402.99063	151.54893	1622.59448	400.49774	364.40591	1634.22681	238.37697	179.71846	1331.28564	383.78574	18.06447	1345.17603	380.98087	499.47122	1365.76135	289.55768	257.52853	984.61194	387.03027	-27.5694	1110.29248	617.86572	24.00637	1156.7937	414.4259	544.89319	1101.95178	620.25763	458.98657	1158.48718	428.78699	57.44772	879.75122				359.49329	80.6213	478.91141	389.74646	134.73021	228.75128	343.81305	123.35787	95.28453	254.59322	165.2339	38.26465	452.17593	84.10741	13.37262	448.59116	456.81122	866.09045				380.74149	420.38116	481.61533	410.82443	390.49066	336.71927	336.18735	371.80756	92.32047	260.23984	324.35254	36.48975	447.66922	415.13538	2.67758	965.91101	-21.14479	9.93127	1955.65491	-11.8066	-14.00936	-4.2835	0.95118	8.9866
156	1.292	348.37009	249.1613	1727.25281	402.99063	151.54893	1622.59448	400.49774	364.40591	1634.22681	238.82227	179.59854	1331.47205	383.78574	18.06447	1345.17603	380.98087	499.47122	1365.76135	289.55768	257.52853	984.61194	387.03027	-27.5694	1110.29248	618.15204	24.6236	1156.36365	414.54572	544.4632	1102.02759	620.25763	458.98657	1158.48718	428.78699	57.44772	879.75122				359.49329	80.6213	478.91141	389.74646	134.73021	228.75128	343.81305	123.35787	95.28453	255.05458	164.73804	38.36623	452.17593	84.10741	13.37262	448.59116	456.81122	866.09045				380.00266	418.92987	481.51904	410.82443	390.49066	336.71927	336.18735	371.80756	92.32047	260.23984	324.35254	36.48975	448.23346	415.12891	2.60063	965.91101	-21.14479	9.93127	1955.65491	-11.8066	-14.00936	-4.2835	0.95118	8.9866
157	1.3	348.2099	248.85516	1727.51807	402.99063	151.54893	1622.59448	400.49774	364.40591	1634.22681	238.82227	179.59854	1331.47205	383.78574	18.06447	1345.17603	380.98087	499.47122	1365.76135	289.55768	257.52853	984.61194	387.71909	-27.82376	1110.58789	618.15204	24.6236	1156.36365	414.54572	544.4632	1102.02759	619.65216	458.49835	1158.58398	428.78699	57.44772	879.75122				359.49329	80.6213	478.91141	389.74646	134.73021	228.75128	343.81305	123.35787	95.28453	254.87334	165.1451	37.88887	452.38889	83.77427	13.14709	448.43469	456.8486	866.39996				380.53409	418.93649	481.17706	409.94235	390.86053	336.67151	336.18735	371.80756	92.32047	259.88281	324.29709	36.56703	447.66922	415.13538	2.67758	965.67474	-21.40953	9.74698	1955.65491	-11.8066	-14.00936	-4.2835	0.95118	8.9866
158	1.308	349.0199	249.06351	1727.50305	402.99063	151.54893	1622.59448	400.49774	364.40591	1634.22681	238.82227	179.59854	1331.47205	383.58636	17.65521	1345.15576	380.98087	499.47122	1365.76135	289.55768	257.52853	984.61194	387.71909	-27.82376	1110.58789	617.86572	24.00637	1156.7937	414.4259	544.89319	1101.95178	619.65216	458.49835	1158.58398	429.65674	57.08911	880.06903				359.49329	80.6213	478.91141	389.80856	135.48361	228.73669	343.81305	123.35787	95.28453	254.59322	165.2339	38.26465	452.17593	84.10741	13.37262	449.12659	456.80136	865.91626				380.53409	418.93649	481.17706	410.38239	390.2991	336.64688	336.18735	371.80756	92.32047	259.88281	324.29709	36.56703	447.66922	415.13538	2.67758	965.67474	-21.40953	9.74698	1955.65491	-11.8066	-14.00936	-4.60406	1.00681	9.24365
159	1.317	348.2099	248.85516	1727.51807	402.99063	151.54893	1622.59448	400.43314	363.90186	1634.19727	238.82227	179.59854	1331.47205	383.58636	17.65521	1345.15576	380.98087	499.47122	1365.76135	290.74603	257.1795	984.34723	387.71909	-27.82376	1110.58789	618.15204	24.6236	1156.36365	415.0321	544.43152	1102.11951	619.65216	458.49835	1158.58398	428.78699	57.44772	879.75122				359.49329	80.6213	478.91141	389.74646	134.73021	228.75128	343.81305	123.35787	95.28453	255.02554	165.02025	38.16899	452.17593	84.10741	13.37262	448.43469	456.8486	866.39996				380.00266	418.92987	481.51904	410.38239	390.2991	336.64688	336.18735	371.80756	92.32047	260.23984	324.35254	36.48975	447.66922	415.13538	2.67758	965.48572	-21.12002	9.70537	1955.65491	-11.8066	-14.00936	-4.2835	0.95118	8.9866
160	1.325	348.77588	248.64557	1727.73535	402.99063	151.54893	1622.59448	400.43314	363.90186	1634.19727	238.82227	179.59854	1331.47205	383.58636	17.65521	1345.15576	380.98087	499.47122	1365.76135	289.55768	257.52853	984.61194	387.71909	-27.82376	1110.58789	617.86572	24.00637	1156.7937	414.62433	544.43365	1102.35413	619.65216	458.49835	1158.58398	429.65674	57.08911	880.06903				359.49329	80.6213	478.91141	389.74646	134.73021	228.75128	343.81305	123.35787	95.28453	255.02554	165.02025	38.16899	452.17593	84.10741	13.37262	448.82263	456.75848	866.33392				380.00266	418.92987	481.51904	410.82443	390.49066	336.71927	336.18735	371.80756	92.32047	259.88281	324.29709	36.56703	447.83942	415.06601	3.03345	965.91101	-21.14479	9.93127	1955.65491	-11.8066	-14.00936	-4.2835	0.95118	8.9866
161	1.333	348.47983	248.36629	1727.63855	402.99063	151.54893	1622.59448	400.43314	363.90186	1634.19727	238.82227	179.59854	1331.47205	383.58636	17.65521	1345.15576	380.98087	499.47122	1365.76135	290.74603	257.1795	984.34723	387.71909	-27.82376	1110.58789	617.86572	24.00637	1156.7937	414.62433	544.43365	1102.35413	619.65216	458.49835	1158.58398	429.65674	57.08911	880.06903				359.49329	80.6213	478.91141	389.74646	134.73021	228.75128	343.81305	123.35787	95.28453	254.59322	165.2339	38.26465	452.38889	83.77427	13.14709	448.43469	456.8486	866.39996				380.00266	418.92987	481.51904	410.38239	390.2991	336.64688	336.18735	371.80756	92.32047	259.88281	324.29709	36.56703	447.66922	415.13538	2.67758	965.91101	-21.14479	9.93127	1955.65491	-11.8066	-14.00936	-4.2835	0.95118	8.9866
